<svg xmlns="http://www.w3.org/2000/svg" width="26" height="26" viewBox="0 0 26 26">
  <path id="linkedin-brands" d="M24.143,32H1.851A1.865,1.865,0,0,0,0,33.875V56.125A1.865,1.865,0,0,0,1.851,58H24.143A1.87,1.87,0,0,0,26,56.125V33.875A1.87,1.87,0,0,0,24.143,32ZM7.858,54.286H4V41.878H7.864V54.286Zm-1.927-14.1a2.234,2.234,0,1,1,2.234-2.234A2.235,2.235,0,0,1,5.931,40.183ZM22.3,54.286H18.45V48.25c0-1.439-.029-3.291-2-3.291-2.008,0-2.316,1.567-2.316,3.186v6.14H10.278V41.878h3.7v1.695h.052a4.059,4.059,0,0,1,3.65-2c3.9,0,4.625,2.571,4.625,5.914Z" transform="translate(0 -32)" fill="#fff" opacity="0.4"/>
</svg>
