<svg xmlns="http://www.w3.org/2000/svg" xmlns:xlink="http://www.w3.org/1999/xlink" width="24" height="24" viewBox="0 0 24 24">
  <defs>
    <clipPath id="clip-path">
      <rect id="Rectangle_2201" data-name="Rectangle 2201" width="24" height="24" transform="translate(155 889)" fill="#fff" stroke="#707070" stroke-width="1"/>
    </clipPath>
  </defs>
  <g id="Mask_Group_244" data-name="Mask Group 244" transform="translate(-155 -889)" clip-path="url(#clip-path)">
    <g id="envelope-duotone" transform="translate(155 891.983)">
      <path id="Path_1282" data-name="Path 1282" d="M11.953,18.423h-.044c-1.4,0-2.815-1.092-3.847-1.888C7.895,16.4,1.154,11.464,0,10.562v10.1A2.237,2.237,0,0,0,2.237,22.9H21.625a2.237,2.237,0,0,0,2.237-2.237v-10.1c-1.14.893-7.9,5.842-8.063,5.971-1.031.8-2.444,1.888-3.846,1.888ZM21.625,5H2.237A2.237,2.237,0,0,0,0,7.237v.886A1.122,1.122,0,0,0,.429,9c1.426,1.114,1.9,1.51,8.081,6,.783.569,2.34,1.948,3.421,1.929,1.081.019,2.638-1.361,3.421-1.929,6.185-4.488,6.655-4.88,8.081-6a1.115,1.115,0,0,0,.429-.881V7.237A2.237,2.237,0,0,0,21.625,5Z" transform="translate(0 -5)" fill="#fff" opacity="0.4"/>
      <path id="Path_1283" data-name="Path 1283" d="M23.862,10.234v2.44c-1.14.893-7.9,5.842-8.063,5.971-1.031.8-2.444,1.888-3.846,1.888h-.044c-1.4,0-2.815-1.092-3.847-1.888-.168-.13-6.908-5.07-8.062-5.973V10.234a1.122,1.122,0,0,0,.429.881c1.426,1.114,1.9,1.51,8.081,6,.778.565,2.319,1.929,3.4,1.929h.044c1.08,0,2.621-1.365,3.4-1.929,6.185-4.488,6.655-4.88,8.081-6A1.115,1.115,0,0,0,23.862,10.234Z" transform="translate(0 -7.112)" fill="#fff"/>
    </g>
  </g>
</svg>
